# xmcd
#
# Track frame offsets:
#	150
#	12661
#	26608
#	41487
#	57582
#	72428
#	92834
#	107542
#	125456
#	147852
#	160777
#	173210
#	186440
#	201406
#	215984
#	229335
#	245016
#	257778
#
# Disc length: 3759 seconds
# Revision: 2
# Processed by: cddbd v1.5.2PL0 Copyright (c) Steve Scherf et al.
# Submitted via: dBpowerAMP V12.0
#
DISCID=180ead12
DTITLE=Various Artist - Ultimate Country - 54 All Time Classics [CD3of3)
DYEAR=2004
DGENRE=Country
TTITLE0=Johnny Cash - I Walk the Line
TTITLE1=John Hartford - Gentle on My Mind
TTITLE2=George Jones - He Stopped Loving Her Today
TTITLE3=Rita Coolidge - We're All Alone
TTITLE4=Bellamy Brothers - Let Your Love Flow
TTITLE5=Steve Earle - Copperhead Road
TTITLE6=Wynona - Girls With Guitars
TTITLE7=Oak Ridge Boys, The - It Takes a Little Rain (To Make Love Grow)
TTITLE8=Guy Clark - La Freeway
TTITLE9=Nanci Griffith - Nickel Dreams
TTITLE10=Mickey Gilley - It Wasn't God Who Made Honky Tonk Angels
TTITLE11=Charlie Rich - Your Cheatin' Heart
TTITLE12=Tim McGraw - I Like It, I Love It
TTITLE13=Jeannie C Riley - Harper Valley Pta
TTITLE14=Hal Ketchum - Small Town Saturday Night
TTITLE15=Jimmy Buffett - If the Phone Doesn't Ring It's Me
TTITLE16=Ray Stevens - Misty
TTITLE17=Judds, The - Love Can Build a Bridge
EXTD=
EXTT0=
EXTT1=
EXTT2=
EXTT3=
EXTT4=
EXTT5=
EXTT6=
EXTT7=
EXTT8=
EXTT9=
EXTT10=
EXTT11=
EXTT12=
EXTT13=
EXTT14=
EXTT15=
EXTT16=
EXTT17=
PLAYORDER=
